<svg width="257" height="120" viewBox="0 0 257 120" fill="none" xmlns="http://www.w3.org/2000/svg">
<g clip-path="url(#clip0_1_368)">
<path d="M34.5406 88.3793C34.5406 88.5116 34.5406 88.7762 34.6724 88.9085C34.9361 88.6439 35.4634 88.3793 35.8589 88.247C35.9907 87.5854 36.6499 87.0562 37.4409 87.0562H37.5728C36.9136 87.1885 36.5181 87.7177 36.2544 88.247C35.8589 88.3793 35.5952 88.6439 35.5952 89.1731C35.5952 89.4377 35.5952 89.57 35.7271 89.7023C36.1226 89.3054 36.5181 89.0408 37.0454 88.9085C37.1773 88.247 37.8364 87.5854 38.4956 87.5854C37.8364 87.85 37.4409 88.5116 37.4409 89.1731C37.4409 89.4377 37.4409 89.7023 37.5728 89.9669C37.7046 89.57 38.1001 89.3054 38.4956 89.3054C38.6274 89.3054 38.7593 89.3054 38.7593 89.3054C38.8911 89.3054 39.0229 89.4377 39.1548 89.4377C39.8139 89.4377 40.4731 88.9085 40.4731 88.1147C40.4731 87.9824 40.4731 87.8501 40.4731 87.7178C40.8686 87.8501 41.0005 88.1147 41.0005 88.5116C41.0005 88.6439 41.0004 88.7762 40.8686 88.9085C41.0004 88.9085 41.0005 88.9085 41.1323 88.9085C41.9233 88.9085 42.7143 88.247 42.7143 87.4531C43.1098 87.1885 43.5053 86.9239 43.769 86.527L44.0326 87.5854C44.0326 87.7177 44.0326 87.7177 44.0326 87.8501C44.0326 87.9824 44.0326 87.9824 43.9008 87.9824L44.8236 87.0562L44.9555 86.9239C44.9555 86.7916 44.9555 86.7916 44.9555 86.6593L44.6918 85.3363C44.6918 85.204 44.6918 85.204 44.6918 85.0717C44.6918 84.9394 44.6918 84.9393 44.8236 84.9393L45.6146 84.1455L45.4828 84.2778C45.4828 84.4101 45.4828 84.4101 45.4828 84.5424L45.7465 85.8655C45.7465 85.9978 45.7465 85.9978 45.7465 86.1301C45.7465 86.2624 45.7465 86.2624 45.6146 86.2624L46.4057 85.3363L46.5375 85.204C46.5375 85.0717 46.5375 85.0717 46.5375 84.9393L46.2738 83.6163C46.2738 83.484 46.2738 83.484 46.2738 83.3517C46.2738 83.2194 46.2738 83.2194 46.4057 83.2194L47.1967 82.4256L47.0648 82.5579C47.0648 82.6902 47.0648 82.6902 47.0648 82.8225L47.3285 84.1455C47.3285 84.2778 47.3285 84.2778 47.3285 84.4101C47.3285 84.5424 47.3285 84.5424 47.1967 84.5424L47.9877 83.6163L48.1195 83.484C48.1195 83.3517 48.1195 83.3517 48.1195 83.2194L47.9877 82.5579C47.8558 81.7641 48.6468 80.9702 49.1742 80.8379C49.306 80.7056 49.306 80.5733 49.306 80.441C49.306 79.6472 48.3832 79.118 47.3285 79.118C46.8012 79.118 46.2738 79.2503 46.0102 79.5149C46.142 79.9118 46.142 80.441 44.8236 80.5733C43.769 80.7056 42.7143 80.9702 41.9233 81.6317C40.7368 82.5579 40.8686 83.8809 40.2094 84.4101C40.4731 84.5424 40.8686 84.5424 41.2641 84.4101C41.5278 84.4101 41.7915 84.2778 41.9233 84.1455C41.7915 84.4101 41.5278 84.5424 41.1323 84.807C41.0005 85.204 40.6049 85.7332 40.0776 85.8655C39.6821 85.9978 39.4184 85.9978 39.1548 85.8655L37.8364 85.4686C37.7046 85.4686 37.4409 85.3363 37.3091 85.3363C36.2544 85.3363 35.4634 86.1301 35.3316 87.0562C34.9361 87.4531 34.5406 87.8501 34.5406 88.3793ZM47.8558 34.796C48.6468 34.0022 49.5697 33.3407 50.4925 32.9438C50.4925 32.8115 50.4925 32.6792 50.4925 32.5469C46.4057 33.2084 42.7143 35.3252 39.2866 35.3252C38.3638 35.3252 37.5728 34.9283 37.4409 34.3991C37.4409 34.2668 37.4409 34.1345 37.4409 34.0022C37.4409 33.7376 37.7046 33.6053 37.9683 33.6053C38.2319 33.6053 38.4956 33.8699 38.4956 34.1345C38.4956 34.2668 38.4956 34.3991 38.3638 34.5314C38.4956 34.5314 38.4956 34.5314 38.6274 34.5314C38.8911 34.5314 39.1548 34.5314 39.4184 34.3991C39.8139 34.2668 40.0776 34.0022 40.0776 33.6053C40.0776 33.0761 39.6821 32.8115 39.2866 32.8115C39.2866 32.8115 39.2866 32.8115 39.1548 32.8115C39.2866 32.8115 39.4184 32.6792 39.5503 32.6792C40.0776 32.6792 40.4731 33.0761 40.4731 33.6053C40.4731 33.6053 40.4731 33.6053 40.4731 33.7376C41.9233 33.7376 43.6371 32.4145 43.9008 31.8853C43.3735 32.0176 42.978 32.0176 42.4506 32.0176C41.9233 32.0176 41.2641 31.8853 40.7368 31.753C40.0776 31.6207 39.2866 31.4884 38.7593 31.4884C36.9136 31.4884 35.4634 32.6792 35.4634 34.1345C35.4634 35.3252 36.5181 36.3837 37.8364 36.6483C41.1323 37.3098 44.8236 35.4575 47.8558 34.796ZM30.3219 39.1621C30.4537 38.7652 30.4537 38.2359 30.4537 37.839L29.9264 38.3682C29.7945 38.2359 29.7945 38.1036 29.7945 37.9713C29.7945 37.839 29.6627 37.839 29.6627 37.839C29.6627 37.839 29.6627 37.839 29.5309 37.839H29.399H29.2672H29.1354C29.1354 37.839 29.0035 37.839 29.0035 37.9713C29.0035 38.1036 28.8717 38.2359 28.8717 38.3682L28.4762 37.839C28.4762 38.2359 28.4762 38.6328 28.608 39.1621C28.8717 39.1621 29.1354 39.0298 29.5309 39.0298C29.6627 39.0298 29.9264 39.0298 30.3219 39.1621ZM30.4537 40.3528C30.4537 39.8236 29.9264 39.6913 29.399 39.6913C28.8717 39.6913 28.3444 39.8236 28.3444 40.3528C28.3444 41.0143 29.0035 40.6174 29.399 40.6174C29.7945 40.6174 30.4537 40.882 30.4537 40.3528ZM31.9039 36.6483C31.7721 36.6483 31.7721 36.7806 31.7721 36.7806C31.7721 37.3098 31.5084 37.5744 31.1129 37.7067C31.1129 38.2359 30.981 38.7652 30.8492 39.2944C31.2447 40.2205 30.9811 40.882 30.5855 41.0143C30.19 41.1466 29.7945 41.0143 29.399 41.0143C29.0035 41.0143 28.4762 41.1466 28.2125 41.0143C27.817 40.882 27.5534 40.2205 27.9489 39.2944C27.817 38.7652 27.6852 38.2359 27.6852 37.7067C27.2897 37.5744 27.026 37.3098 27.026 36.7806C27.026 36.6483 26.8942 36.6483 26.8942 36.6483C25.444 36.2514 25.3122 34.3991 25.9714 33.8699C25.8395 34.6637 25.8395 35.8545 27.5534 35.9868C27.5534 36.9129 27.9489 37.1775 28.3444 37.1775C28.7399 37.1775 28.8717 37.0452 29.0035 37.0452C29.2672 36.9129 29.1354 36.6483 29.0035 36.516C28.7399 36.2514 28.608 35.9868 28.7399 35.7222C28.7399 35.7222 28.7399 35.5898 28.8717 35.5898H29.399H29.9264C29.9264 35.5898 30.0582 35.5898 30.0582 35.7222C30.0582 35.9868 30.0582 36.2514 29.7945 36.516C29.6627 36.6483 29.5309 36.9129 29.7945 37.0452C29.9264 37.0452 30.0582 37.1775 30.4537 37.1775C30.8492 37.1775 31.3766 36.9129 31.2447 35.9868C32.9586 35.8545 32.8267 34.6637 32.8267 33.8699C33.6177 34.3991 33.4859 36.2514 31.9039 36.6483ZM32.4312 33.473C32.4312 33.8699 32.1676 34.3991 31.7721 34.3991H31.5084C31.6402 34.5314 31.6402 34.6637 31.6402 34.796C31.6402 35.0606 31.3766 35.3252 31.1129 35.3252C30.8492 35.3252 30.5855 35.0606 30.5855 34.796C30.5855 34.6637 30.5855 34.5314 30.7174 34.3991H30.3219C30.19 34.3991 30.0582 34.3991 30.0582 34.5314C30.0582 34.3991 30.0582 34.1345 30.0582 34.0022C30.0582 33.8699 30.19 33.7376 30.3219 33.7376H31.7721C32.0357 33.7376 32.2994 33.6053 32.4312 33.473ZM32.1676 32.6792H31.6402C31.3766 32.6792 31.2447 32.5469 30.9811 32.4145L30.3219 31.6207C30.19 31.4884 30.19 31.3561 30.0582 31.3561H30.5855C30.7174 31.3561 30.9811 31.4884 30.9811 31.6207L31.6402 32.4145C32.0357 32.5469 32.0357 32.6792 32.1676 32.6792ZM29.5309 31.3561L30.3219 32.4145C30.4537 32.5469 30.5855 32.6792 30.7174 32.8115H30.0582C29.7945 32.8115 29.6627 32.6792 29.5309 32.5469L28.8717 31.6207C28.608 31.2238 28.608 31.2238 28.3444 31.0915H29.0035C29.1354 31.0915 29.399 31.2238 29.5309 31.3561ZM27.6852 31.6207L28.3444 32.4145C28.4762 32.5469 28.4762 32.6792 28.7399 32.6792H28.2125C27.9489 32.6792 27.817 32.5469 27.5534 32.4145L26.8942 31.6207C26.7624 31.4884 26.7624 31.3561 26.6305 31.3561H27.2897C27.4215 31.3561 27.6852 31.4884 27.6852 31.6207ZM27.4215 34.3991H27.1579C26.7624 34.3991 26.4987 33.8699 26.4987 33.473C26.6305 33.7376 26.8942 33.7376 27.1579 33.7376H28.608C28.7399 33.7376 28.8717 33.8699 28.8717 34.0022C28.8717 34.1345 28.8717 34.2668 28.8717 34.5314C28.8717 34.3991 28.7399 34.3991 28.608 34.3991H28.2125C28.3444 34.5314 28.3444 34.6637 28.3444 34.796C28.3444 35.0606 28.0807 35.3252 27.817 35.3252C27.5534 35.3252 27.2897 35.0606 27.2897 34.796C27.2897 34.5314 27.2897 34.3991 27.4215 34.3991ZM25.5758 41.5435L25.7077 41.1466C25.7077 41.0143 25.7077 41.0143 25.7077 40.882C25.7077 40.7497 25.7077 40.7497 25.7077 40.6174L26.235 41.5435C26.235 41.6758 26.235 41.6758 26.235 41.8081C26.235 41.9405 26.235 41.9405 26.235 42.0728V42.2051C25.9713 42.8666 25.7077 43.925 25.9714 44.5865C25.1803 44.3219 25.0485 43.6604 25.0485 43.1312C23.5983 41.8081 23.3347 40.4851 24.2575 39.2944L24.7848 38.6329L24.9167 38.5005C24.9167 38.3682 24.9167 38.3682 24.9167 38.2359L25.1803 39.2944C25.1803 39.4267 25.1803 39.4267 25.1803 39.559C25.1803 39.6913 25.1803 39.6913 25.0485 39.6913L24.9167 39.8236C24.3893 40.4851 24.5212 41.2789 25.3122 41.9405C25.3122 41.8082 25.444 41.6758 25.5758 41.5435ZM59.7209 45.2481C59.7209 45.1158 59.8527 44.9835 59.8527 44.8512C59.8527 44.1896 59.3254 43.6604 58.6662 43.6604H57.4797C57.3479 43.6604 57.3479 43.6604 57.2161 43.6604L57.0842 43.5281L56.5569 42.7343L56.6887 42.8666C56.6887 42.8666 56.8206 42.8666 56.9524 42.8666H58.4026C58.5344 42.8666 58.5344 42.8666 58.6662 42.8666L58.7981 42.9989L58.1389 41.9405L58.0071 41.8081C58.0071 41.8081 57.8752 41.8081 57.7434 41.8081H56.2932C56.1614 41.8081 56.1614 41.8081 56.0295 41.8081L55.8977 41.6758L55.2385 40.7497L55.3704 40.882C55.3704 40.882 55.5022 40.882 55.634 40.882H57.0842C57.2161 40.882 57.2161 40.882 57.3479 40.882L57.4797 41.0143L56.8206 39.9559L56.6887 39.8236C56.6887 39.8236 56.5569 39.8236 56.425 39.8236H55.2385C55.1067 39.8236 55.1067 39.8236 54.9749 39.8236L54.843 39.6913L54.052 38.5005C55.634 38.3682 56.9524 37.4421 57.2161 36.2514C57.6116 34.6637 56.0295 33.2084 53.7884 32.8115C53.3929 32.8115 53.1292 32.4145 53.1292 32.0176C53.1292 31.6207 53.3929 31.3561 53.6565 31.2238C53.3929 31.0915 53.1292 31.0915 52.8655 31.0915C51.8109 31.0915 51.0198 31.753 51.0198 32.6792C51.0198 32.8115 51.0198 32.9438 51.1517 33.0761C50.097 33.6053 49.0423 34.3991 48.2513 35.3252C49.0423 35.0606 49.9652 34.9283 50.888 34.9283V34.796C50.888 34.1345 51.4154 33.6053 52.0745 33.6053C51.679 33.8699 51.4154 34.2668 51.4154 34.5314C51.4154 34.9283 51.679 35.1929 52.0745 35.1929C52.2064 35.1929 52.3382 35.1929 52.47 35.0606C52.47 34.9283 52.47 34.9283 52.47 34.796C52.47 34.2668 52.8655 33.8699 53.3929 33.8699H53.5247C53.1292 34.0022 52.9974 34.3991 52.9974 34.796C52.9974 35.3252 53.3929 35.7222 53.9202 35.7222H54.052V35.5898C54.052 35.1929 54.3157 34.9283 54.7112 34.9283C55.1067 34.9283 55.3704 35.1929 55.3704 35.5898C55.3704 36.3837 54.4475 36.516 53.7884 36.3837C51.8109 35.8545 49.9652 35.5898 48.2513 35.8545C46.0101 36.1191 42.3188 37.7067 38.3638 37.5744C37.4409 37.5744 36.5181 37.4421 35.5952 37.1775C35.7271 37.3098 35.7271 37.4421 35.8589 37.4421C36.2544 38.1036 36.3862 38.6328 35.9907 39.4267C35.9907 38.5005 35.3316 37.839 34.6724 37.3098C34.4087 37.1775 34.2769 36.9129 34.4087 36.7806L34.5406 35.7222C34.5406 35.8545 34.5406 35.8545 34.5406 35.9868C34.5406 36.1191 34.5406 36.1191 34.6724 36.1191L35.0679 36.516C35.1997 35.4575 34.9361 34.5314 34.4087 33.6053C34.6724 32.9438 34.6724 32.1499 34.5406 31.3561C34.4087 31.8853 34.1451 32.1499 33.8814 32.2822C33.3541 32.5469 33.3541 33.0761 33.6177 33.473C33.2222 33.2084 32.6949 32.5469 32.9586 32.0176C33.3541 31.4884 34.2769 31.753 34.4087 30.9592C33.7496 30.8269 33.0904 30.9592 32.9586 30.9592C32.5631 30.5623 32.1676 30.2977 31.5084 30.2977C30.981 29.9008 30.4537 29.6362 29.6627 29.7685C28.8717 29.6362 28.3444 29.9008 27.817 30.2977C27.1579 30.2977 26.7624 30.5623 26.3669 30.9592C26.235 30.9592 25.5758 30.8269 24.9167 30.9592C25.0485 31.753 25.9713 31.4884 26.3669 32.0176C26.6305 32.4145 26.1032 33.2084 25.7077 33.473C25.9713 33.0761 25.8395 32.6792 25.444 32.2822C25.1803 32.1499 24.9167 31.8853 24.7848 31.3561C24.653 32.1499 24.653 32.8115 24.9167 33.6053C24.2575 34.5314 24.1257 35.4575 24.2575 36.516L24.653 36.1191L24.7848 35.9868C24.7848 35.8545 24.7848 35.8545 24.7848 35.7222L24.9167 36.7806C24.9167 37.0452 24.9167 37.1775 24.653 37.3098C23.9938 37.7067 23.3347 38.5005 23.3347 39.4267C22.9392 38.6328 23.071 37.9713 23.4665 37.4421C22.28 36.7806 21.489 35.7222 21.2253 35.5898C20.8298 35.1929 20.9617 34.6637 21.2253 34.2668C21.8845 33.3407 22.0163 32.4145 21.2253 31.753V31.6207C21.2253 31.0915 20.8298 30.5623 20.3025 30.43C20.4343 30.5623 20.4343 30.8269 20.4343 30.9592C20.4343 31.2238 20.3025 31.3561 20.1706 31.6207C20.3025 31.753 20.3025 31.8853 20.3025 32.1499C20.3025 32.4145 20.1706 32.6792 20.0388 32.8115C20.0388 32.6792 20.0388 32.6792 20.0388 32.5469C20.0388 31.8853 19.6433 31.4884 19.116 31.3561C18.9841 30.9592 18.7205 30.5623 18.1931 30.5623C17.9295 30.5623 17.6658 30.6946 17.534 30.8269C17.9295 30.8269 18.1931 31.0915 18.1931 31.4884C18.0613 31.6207 17.9295 31.753 17.7976 32.0176C18.4568 32.0176 18.8523 32.5469 18.8523 33.0761C18.8523 33.2084 18.8523 33.2084 18.8523 33.3407C18.8523 33.0761 18.7205 32.8115 18.4568 32.6792C18.0613 32.2822 17.6658 32.2822 17.1385 32.4145C17.0066 32.1499 16.743 32.0176 16.3475 32.0176C15.9519 32.0176 15.6883 32.1499 15.5564 32.4145C15.952 32.4145 16.2156 32.5468 16.3475 32.8115C15.8201 33.473 15.8201 34.2668 16.3475 34.796C16.743 35.0606 17.1385 35.1929 17.534 35.0606C17.534 35.0606 17.534 35.0606 17.6658 35.0606C17.7976 35.0606 17.9295 35.1929 17.9295 35.3252C17.9295 35.4575 17.7976 35.5898 17.6658 35.5898C17.534 35.5898 17.534 35.5898 17.534 35.4575C17.4021 35.3252 17.2703 35.3252 17.1385 35.3252C16.743 35.3252 16.4793 35.5898 16.4793 35.9868C16.4793 35.9868 16.4793 35.9868 16.4793 36.1191H16.3475C16.2156 36.1191 15.952 35.9868 15.952 35.9868C15.952 36.1191 15.952 36.1191 15.952 36.2514C15.952 36.6483 16.3475 37.0452 16.743 37.1775C17.0066 37.7067 17.4021 37.9713 18.0613 37.9713C18.325 37.9713 18.5886 37.839 18.8523 37.7067C18.9841 37.5744 19.116 37.5744 19.2478 37.5744C19.5115 37.5744 19.907 37.839 19.907 38.2359C19.907 38.5005 19.6433 38.7652 19.3796 38.7652L18.8523 38.8975C18.7205 38.8975 18.7205 38.8975 18.5886 38.8975C18.4568 38.8975 18.4568 38.8975 18.4568 38.7652L19.5115 39.8236L19.6433 39.9559C19.7751 39.9559 19.7751 39.9559 19.907 39.9559L20.8298 39.8236C20.9617 39.8236 20.9616 39.8236 21.0935 39.8236C21.2253 39.8236 21.2253 39.8236 21.2253 39.9559L22.0163 40.6174L21.8845 40.4851C21.7527 40.4851 21.7527 40.4851 21.6208 40.4851L20.698 40.6174C20.5661 40.6174 20.5661 40.6174 20.4343 40.6174C20.3025 40.6174 20.3025 40.6174 20.3025 40.4851L21.2253 41.4112L21.3572 41.5435C21.489 41.5435 21.489 41.5435 21.6208 41.5435L22.5437 41.4112C22.6755 41.4112 22.6755 41.4112 22.8073 41.4112C22.9392 41.4112 22.9392 41.4112 22.9392 41.5435L23.7302 42.2051L23.5983 42.0728C23.4665 42.0728 23.4665 42.0728 23.3347 42.0728L22.28 42.3374C22.1482 42.3374 22.1482 42.3374 22.0163 42.3374C21.8845 42.3374 21.8845 42.3374 21.8845 42.2051L22.8073 43.1312L22.9392 43.2635C23.071 43.2635 23.071 43.2635 23.2028 43.2635L24.2575 42.9989C23.2028 43.5281 22.1482 44.1896 20.9616 44.9835C20.3025 45.3804 19.5115 45.5127 18.7205 45.1158C18.325 44.9835 17.7976 44.8512 17.4021 44.9835C17.0066 45.1158 16.6111 45.2481 16.4793 45.645C16.6111 45.645 16.8748 45.5127 17.0066 45.5127C17.4021 45.5127 17.6658 45.645 17.9295 45.9096C17.534 45.7773 17.0066 45.7773 16.6111 45.9096C15.8201 46.1742 15.2928 46.968 15.4246 47.7618C15.1609 47.8941 14.8973 48.1588 14.8973 48.5557C14.8973 48.8203 15.0291 48.9526 15.1609 49.2172C15.2928 48.8203 15.5564 48.5557 15.952 48.5557C16.0838 48.688 16.3475 48.688 16.4793 48.8203C16.4793 48.688 16.6111 48.5557 16.743 48.5557C16.743 48.4234 16.743 48.4234 16.743 48.2911C16.743 47.4972 17.4021 46.8357 18.1931 46.8357H18.325C17.6658 46.968 17.2703 47.4972 17.2703 48.1588C17.2703 48.2911 17.2703 48.2911 17.2703 48.4234C16.8748 48.5557 16.743 48.8203 16.743 49.2172C16.743 49.4818 16.8748 49.6141 17.0066 49.7464C17.2703 49.2172 17.6658 48.9526 18.325 48.9526C18.5886 48.9526 18.7205 49.0849 18.9841 49.0849C19.116 49.0849 19.2478 49.0849 19.3796 49.0849C19.2478 48.9526 19.2478 48.688 19.2478 48.4234C19.2478 47.7618 19.7751 47.3649 20.3025 47.3649H20.4343C19.907 47.6295 19.5115 48.1588 19.6433 48.5557C19.7751 48.8203 20.0388 49.0849 20.4343 49.2172C20.4343 49.4818 20.3025 49.7464 20.3025 49.8787C20.8298 49.8787 21.2253 49.4818 21.489 49.0849C22.1482 48.8203 22.4118 48.2911 22.28 47.8941C22.28 47.7618 22.1482 47.6295 22.0163 47.4972C22.0163 47.2326 22.28 46.968 22.5437 46.968C22.8073 46.968 23.071 47.2326 23.071 47.4972C23.071 47.6295 23.071 47.7618 22.9392 47.8941H24.1257C24.2575 47.8941 24.2575 47.8941 24.3893 47.8941L24.5212 47.7618L25.3122 46.5711L25.444 46.4388H25.5758H26.4987H26.3669C26.3669 46.4388 26.235 46.4388 26.235 46.5711L25.444 47.6295L25.3122 47.7618C25.3122 47.7618 25.1803 47.7618 25.0485 47.7618H26.4987C26.6305 47.7618 26.6305 47.7618 26.7624 47.7618L26.8942 47.6295L27.817 46.3065C27.1579 45.9096 27.026 45.3804 27.026 44.5865C27.026 44.0573 27.2897 43.5281 27.2897 43.1312V42.9989C27.2897 42.8666 27.2897 42.8666 27.2897 42.7343C27.2897 42.7343 27.2897 42.602 27.1579 42.602L27.9489 43.3958L28.0807 43.5281C28.0807 43.6604 28.0807 43.6604 28.0807 43.7927V43.925C28.0807 44.1896 27.6852 44.8512 28.3444 45.5127C28.3444 45.5127 28.4762 45.645 28.608 45.645L29.1354 45.9096V44.0573H29.7945V46.1742C29.7945 46.3065 29.7945 46.3065 29.7945 46.4388L29.9264 46.5711L30.5855 46.968C30.7174 46.968 30.7174 46.968 30.8492 47.1003C30.981 47.1003 30.9811 47.1003 31.1129 47.1003L32.4312 46.5711C32.2994 46.5711 32.2994 46.5711 32.1676 46.5711C32.0357 46.5711 32.0357 46.5711 31.9039 46.4388L30.4537 45.5127C31.1129 44.8512 30.7174 44.1896 30.7174 43.925V43.7927C30.7174 43.6604 30.7174 43.6604 30.7174 43.5281C30.7174 43.3958 30.8492 43.3958 30.8492 43.3958L31.6402 42.602L31.5084 42.7343C31.5084 42.8666 31.5084 42.8666 31.5084 42.9989V43.1312C31.5084 43.6604 32.0357 44.5865 31.6402 45.1158L32.9586 45.9096C33.0904 45.9096 33.0904 45.9096 33.2222 46.0419C33.3541 46.0419 33.3541 46.0419 33.4859 46.0419L34.8042 45.5127C34.6724 45.5127 34.6724 45.5127 34.5406 45.5127C34.4087 45.5127 34.4087 45.5127 34.2769 45.3804L32.9586 44.4542C33.2222 43.7927 32.9586 42.7343 32.6949 42.2051V42.0728C32.6949 41.9405 32.6949 41.9405 32.6949 41.8081C32.6949 41.6758 32.6949 41.6758 32.6949 41.5435L33.2222 40.6174C33.2222 40.6174 33.2222 40.7497 33.2222 40.882C33.2222 41.0143 33.2222 41.0143 33.2222 41.1466L33.3541 41.5435C33.4859 41.6758 33.4859 41.8082 33.6177 42.0728C34.4087 41.2789 34.6724 40.6174 34.1451 39.9559L34.0132 39.8236L33.8814 39.6913C33.8814 39.559 33.8814 39.559 33.8814 39.4267L34.1451 38.3682C34.1451 38.5005 34.1451 38.5005 34.1451 38.6329C34.1451 38.7652 34.1451 38.7652 34.2769 38.7652L34.8042 39.4267C35.8589 40.6174 35.1997 42.0728 34.0132 43.1312C34.0132 43.3958 34.1451 43.7927 34.1451 43.925L35.7271 44.9835C35.7271 44.9835 35.8589 44.9835 35.9907 45.1158C36.1226 45.1158 36.1226 45.1158 36.2544 45.1158L37.4409 44.5865C37.4409 44.5865 37.3091 44.5865 37.1773 44.5865C36.9136 44.5865 36.6499 44.3219 36.6499 44.0573C36.6499 43.7927 36.7818 43.6604 37.0454 43.5281C41.396 42.2051 45.351 38.7652 47.9877 38.7652C49.306 38.7652 50.3607 39.559 50.3607 40.4851C50.3607 40.6174 50.3607 40.7497 50.2288 40.882C49.7015 42.4697 50.4925 43.925 52.6019 44.5865C52.9974 44.7188 53.261 44.9835 53.261 45.3804C53.261 45.5127 53.261 45.5127 53.261 45.645H53.3929C53.9202 45.645 54.4475 45.3804 54.843 44.8512C55.2385 44.8512 55.634 44.8512 56.0295 44.7188C56.0295 44.8512 56.1614 44.9835 56.1614 45.1158C56.2932 45.5127 56.0295 46.0419 55.7659 46.0419C55.2385 46.1742 54.7112 46.0419 54.1839 46.0419C53.261 46.0419 52.6019 46.8357 52.6019 47.6295C52.6019 47.7618 52.6019 47.7618 52.6019 47.8941C52.3382 48.0265 52.0745 48.4234 52.0745 48.688C52.0745 48.8203 52.0745 49.0849 52.2064 49.2172C52.47 48.9526 52.8655 48.688 53.261 48.5557C53.261 47.7618 53.9202 47.1003 54.7112 47.1003C54.843 47.1003 54.9749 47.1003 55.1067 47.1003C54.3157 47.2326 53.6565 47.8941 53.6565 48.688V48.8203C53.5247 48.9526 53.5247 49.0849 53.5247 49.2172C53.5247 49.4818 53.6565 49.6141 53.7884 49.7464C53.9202 49.3495 54.3157 49.0849 54.7112 48.9526C54.7112 48.9526 55.1067 48.9526 55.3704 48.9526C55.3704 48.8203 55.3704 48.688 55.3704 48.5557C55.3704 47.8941 55.8977 47.2326 56.6887 47.2326H56.8206C56.2932 47.2326 55.8977 47.7618 55.8977 48.2911C55.8977 48.688 56.0295 48.9526 56.2932 49.0849C56.2932 49.3495 56.4251 49.6141 56.5569 49.7464C56.6887 49.2172 57.0842 48.9526 57.4797 48.9526C57.8752 48.9526 58.2707 48.9526 58.5344 48.8203C58.9299 48.688 59.3254 48.2911 59.3254 47.7618C59.3254 47.3649 59.1936 47.1003 58.9299 46.968C59.0617 46.4388 59.0617 45.5127 58.7981 44.8512H58.9299C59.3254 44.8512 59.5891 44.9835 59.7209 45.2481ZM37.5728 54.5094C37.5728 54.3771 37.5728 54.2448 37.5728 54.1125C37.5728 53.8478 37.8364 53.7155 38.1001 53.7155C38.3638 53.7155 38.6274 53.9801 38.6274 54.2448C38.6274 54.3771 38.6274 54.5094 38.4956 54.6417C38.6274 54.6417 38.6274 54.6417 38.7593 54.6417C39.0229 54.6417 39.2866 54.6417 39.5503 54.5094C39.9458 54.3771 40.2094 54.1124 40.2094 53.7155C40.2094 53.1863 39.8139 52.9217 39.4184 52.9217C39.4184 52.9217 39.4184 52.9217 39.2866 52.9217C39.4184 52.9217 39.5503 52.7894 39.6821 52.7894C40.2094 52.7894 40.6049 53.1863 40.6049 53.7155C40.6049 53.7155 40.6049 53.7155 40.6049 53.8478C42.0551 53.8478 43.769 52.5248 44.0326 51.9956C43.5053 52.1279 43.1098 52.1279 42.5825 52.1279C42.0551 52.1279 41.396 51.9956 40.8686 51.8633C40.2094 51.731 39.4184 51.5987 38.8911 51.5987C37.0454 51.5987 35.5952 52.7894 35.5952 54.2448C35.5952 55.4355 36.6499 56.4939 37.9683 56.7585C41.1323 57.4201 44.8236 55.5678 47.8558 54.9063C48.6468 54.1125 49.5697 53.4509 50.4925 53.054C50.4925 52.9217 50.4925 52.7894 50.4925 52.6571C46.4057 53.3186 42.7143 55.4355 39.2866 55.4355C38.3638 55.4355 37.7046 55.0386 37.5728 54.5094ZM37.4409 46.8357H37.5728C36.9136 46.968 36.5181 47.4972 36.2544 48.0265C35.8589 48.1588 35.5952 48.5557 35.5952 48.9526C35.5952 49.2172 35.5952 49.3495 35.7271 49.4818C36.1226 49.0849 36.5181 48.8203 37.0454 48.688C37.1773 48.0265 37.8364 47.3649 38.4956 47.3649C37.8364 47.6295 37.4409 48.2911 37.4409 48.9526C37.4409 49.2172 37.4409 49.4818 37.5728 49.7464C37.7046 49.3495 38.1001 49.0849 38.4956 49.0849C38.6274 49.0849 38.7593 49.0849 38.7593 49.0849C38.8911 49.0849 39.0229 49.2172 39.1548 49.2172C39.8139 49.2172 40.4731 48.688 40.4731 47.8941C40.4731 47.7618 40.4731 47.6295 40.4731 47.4972C40.8686 47.6295 41.0005 47.8941 41.0005 48.2911C41.0005 48.4234 41.0004 48.5557 40.8686 48.688C41.0004 48.688 41.0005 48.688 41.1323 48.688C41.9233 48.688 42.7143 48.0265 42.7143 47.2326C43.1098 46.968 43.5053 46.7034 43.769 46.3065L44.0326 47.3649C44.0326 47.4972 44.0326 47.4972 44.0326 47.6295C44.0326 47.7618 44.0326 47.7618 43.9008 47.7618L44.8236 46.8357L44.9555 46.7034C44.9555 46.5711 44.9555 46.5711 44.9555 46.4388L44.6918 45.1158C44.6918 44.9835 44.6918 44.9835 44.6918 44.8512C44.6918 44.7188 44.6918 44.7188 44.8236 44.7188L45.6146 43.925L45.4828 44.0573C45.4828 44.1896 45.4828 44.1896 45.4828 44.3219L45.7465 45.645C45.7465 45.7773 45.7465 45.7773 45.7465 45.9096C45.7465 46.0419 45.7465 46.0419 45.6146 46.0419L46.4057 45.1158L46.5375 44.9835C46.5375 44.8512 46.5375 44.8512 46.5375 44.7188L46.2738 43.3958C46.2738 43.2635 46.2738 43.2635 46.2738 43.1312C46.2738 42.9989 46.2738 42.9989 46.4057 42.9989L47.1967 42.2051L47.0648 42.3374C47.0648 42.4697 47.0648 42.4697 47.0648 42.602L47.3285 43.925C47.3285 44.0573 47.3285 44.0573 47.3285 44.1896C47.3285 44.3219 47.3285 44.3219 47.1967 44.3219L47.9877 43.3958L48.1195 43.2635C48.1195 43.1312 48.1195 43.1312 48.1195 42.9989L47.9877 42.3374C47.8558 41.5435 48.6468 40.7497 49.1742 40.6174C49.306 40.4851 49.306 40.3528 49.306 40.2205C49.306 39.4267 48.3832 38.8975 47.3285 38.8975C46.8012 38.8975 46.2738 39.0298 46.0102 39.2944C46.142 39.6913 46.142 40.2205 44.8236 40.3528C43.769 40.4851 42.7143 40.7497 41.9233 41.4112C40.7368 42.3374 40.8686 43.6604 40.2094 44.1896C40.4731 44.3219 40.8686 44.3219 41.2641 44.1896C41.5278 44.1896 41.7915 44.0573 41.9233 43.925C41.7915 44.1896 41.5278 44.3219 41.1323 44.5865C41.0005 45.1158 40.6049 45.5127 40.0776 45.645C39.6821 45.7773 39.4184 45.7773 39.1548 45.645L37.8364 45.2481C37.7046 45.2481 37.4409 45.1158 37.3091 45.1158C36.2544 45.1158 35.4634 45.9096 35.3316 46.8357C34.8042 46.8357 34.5406 47.3649 34.5406 47.7618C34.5406 47.8941 34.5406 48.1588 34.6724 48.2911C34.9361 48.0265 35.4634 47.7618 35.8589 47.6295C36.1226 47.3649 36.6499 46.8357 37.4409 46.8357ZM30.3219 59.14C30.4537 58.7431 30.4537 58.2139 30.4537 57.817L30.0582 58.3462C29.9264 58.2139 29.9264 58.0816 29.9264 57.9493C29.9264 57.817 29.7945 57.817 29.7945 57.817C29.7945 57.817 29.7945 57.817 29.6627 57.817H29.5309H29.399H29.2672C29.2672 57.817 29.1354 57.817 29.1354 57.9493C29.1354 58.0816 29.0035 58.2139 29.0035 58.3462L28.608 57.817C28.608 58.2139 28.608 58.6108 28.7399 59.14C29.0035 59.14 29.2672 59.0077 29.6627 59.0077C29.6627 59.14 29.9264 59.14 30.3219 59.14ZM30.4537 60.3308C30.4537 59.8015 29.9264 59.6692 29.399 59.6692C28.8717 59.6692 28.3444 59.8015 28.3444 60.3308C28.3444 60.9923 29.0035 60.5954 29.399 60.5954C29.7945 60.7277 30.4537 60.9923 30.4537 60.3308ZM31.9039 56.7585C31.7721 56.7585 31.7721 56.8908 31.7721 56.8908C31.7721 57.4201 31.5084 57.6847 31.1129 57.817C31.1129 58.3462 30.981 58.8754 30.8492 59.4046C31.2447 60.3308 30.9811 60.9923 30.5855 61.1246C30.19 61.2569 29.7945 61.1246 29.399 61.1246C29.0035 61.1246 28.4762 61.2569 28.2125 61.1246C27.817 60.9923 27.5534 60.3308 27.9489 59.4046C27.817 58.8754 27.6852 58.3462 27.6852 57.817C27.2897 57.6847 27.026 57.4201 27.026 56.8908C27.026 56.7585 26.8942 56.7585 26.8942 56.7585C25.444 56.3616 25.3122 54.5094 25.9714 53.9801C25.8395 54.774 25.8395 55.9647 27.5534 56.097C27.5534 57.0231 27.9489 57.2878 28.3444 57.2878C28.7399 57.2878 28.8717 57.1555 29.0035 57.1555C29.2672 57.0231 29.1354 56.7585 29.0035 56.6262C28.7399 56.3616 28.608 56.097 28.7399 55.8324C28.7399 55.8324 28.7399 55.7001 28.8717 55.7001H29.399H29.9264C29.9264 55.7001 30.0582 55.7001 30.0582 55.8324C30.0582 56.097 30.0582 56.3616 29.7945 56.6262C29.6627 56.7585 29.5309 57.0231 29.7945 57.1555C29.9264 57.1555 30.0582 57.2878 30.4537 57.2878C30.8492 57.2878 31.3766 57.0231 31.2447 56.097C32.9586 55.9647 32.8267 54.774 32.8267 53.9801C33.6177 54.5094 33.4859 56.3616 31.9039 56.7585ZM32.4312 53.4509C32.4312 53.8478 32.1676 54.3771 31.7721 54.3771H31.5084C31.6402 54.5094 31.6402 54.6417 31.6402 54.774C31.6402 55.0386 31.3766 55.3032 31.1129 55.3032C30.8492 55.3032 30.5855 55.0386 30.5855 54.774C30.5855 54.6417 30.5855 54.5094 30.7174 54.3771H30.3219C30.19 54.3771 30.0582 54.3771 30.0582 54.5094C30.0582 54.3771 30.0582 54.1124 30.0582 53.9801C30.0582 53.8478 30.19 53.7155 30.3219 53.7155H31.7721C32.0357 53.8478 32.2994 53.7155 32.4312 53.4509ZM32.1676 52.7894H31.6402C31.3766 52.7894 31.2447 52.6571 30.9811 52.5248L30.3219 51.731C30.19 51.5987 30.19 51.4664 30.0582 51.4664H30.5855C30.7174 51.4664 30.9811 51.5987 30.9811 51.731L31.6402 52.5248C32.0357 52.6571 32.0357 52.7894 32.1676 52.7894ZM29.5309 51.4664L30.3219 52.5248C30.4537 52.6571 30.5855 52.7894 30.7174 52.9217H30.0582C29.7945 52.9217 29.6627 52.7894 29.5309 52.6571L28.7399 51.5987C28.4762 51.2018 28.4762 51.2018 28.2125 51.0695H28.8717C29.1354 51.0695 29.399 51.3341 29.5309 51.4664ZM27.6852 51.731L28.3444 52.5248C28.4762 52.6571 28.4762 52.7894 28.7399 52.7894H28.2125C27.9489 52.7894 27.817 52.6571 27.5534 52.5248L26.8942 51.731C26.7624 51.5987 26.7624 51.4664 26.6305 51.4664H27.2897C27.4215 51.4664 27.6852 51.4664 27.6852 51.731ZM27.4215 54.3771H27.1579C26.7624 54.3771 26.4987 53.8478 26.4987 53.4509C26.6305 53.7155 26.8942 53.7155 27.1579 53.7155H28.608C28.7399 53.7155 28.8717 53.8478 28.8717 53.9801C28.8717 54.1124 28.8717 54.2448 28.8717 54.5094C28.7399 54.3771 28.7399 54.3771 28.608 54.3771H28.2125C28.3444 54.5094 28.3444 54.6417 28.3444 54.774C28.3444 55.0386 28.0807 55.3032 27.817 55.3032C27.5534 55.3032 27.2897 55.0386 27.2897 54.774C27.2897 54.6417 27.2897 54.5094 27.4215 54.3771ZM25.5758 61.6538L25.7077 61.2569C25.7077 61.1246 25.7077 61.1246 25.7077 60.9923C25.7077 60.86 25.7077 60.86 25.7077 60.7277L26.235 61.6538C26.235 61.7861 26.235 61.7861 26.235 61.9184C26.235 62.0507 26.235 62.0507 26.235 62.183V62.3153C25.9713 62.9768 25.7077 64.0353 25.9714 64.6968C25.1803 64.4322 25.0485 63.7707 25.0485 63.2414C23.5983 61.9184 23.3347 60.5954 24.2575 59.4046L24.7848 58.7431L24.9167 58.6108C24.9167 58.4785 24.9167 58.4785 24.9167 58.3462L25.1803 59.4046C25.1803 59.5369 25.1803 59.5369 25.1803 59.6692C25.1803 59.8015 25.1803 59.8015 25.0485 59.8015L24.9167 59.9338C24.3893 60.5954 24.5212 61.3892 25.3122 62.0507C25.3122 61.9184 25.444 61.7861 25.5758 61.6538ZM59.7209 65.3583C59.7209 65.226 59.8527 65.0937 59.8527 64.9614C59.8527 64.2999 59.3254 63.7707 58.6662 63.7707H57.4797C57.3479 63.7707 57.3479 63.7707 57.2161 63.7707L57.0842 63.6384L56.5569 62.8445L56.6887 62.9768C56.6887 62.9768 56.8206 62.9768 56.9524 62.9768H58.4026C58.5344 62.9768 58.5344 62.9768 58.6662 62.9768L58.7981 63.1091L58.1389 62.183L58.0071 62.0507C58.0071 62.0507 57.8752 62.0507 57.7434 62.0507H56.2932C56.1614 62.0507 56.1614 62.0507 56.0295 62.0507L55.8977 61.9184L55.2385 60.9923L55.3704 61.1246C55.3704 61.1246 55.5022 61.1246 55.634 61.1246H57.0842C57.2161 61.1246 57.2161 61.1246 57.3479 61.1246L57.4797 61.2569L56.8206 60.1984L56.6887 60.0661C56.6887 60.0661 56.5569 60.0661 56.425 60.0661H55.2385C55.1067 60.0661 55.1067 60.0661 54.9749 60.0661L54.843 59.9338L54.052 58.6108C55.634 58.4785 56.9524 57.5524 57.2161 56.3616C57.6116 54.774 56.0295 53.3186 53.7884 52.9217C53.3929 52.9217 53.1292 52.5248 53.1292 52.1279C53.1292 51.731 53.3929 51.4664 53.6565 51.3341C53.3929 51.2018 53.1292 51.2018 52.8655 51.2018C51.8109 51.2018 51.0198 51.8633 51.0198 52.7894C51.0198 52.9217 51.0198 53.054 51.1517 53.1863C50.097 53.7155 49.0423 54.5094 48.2513 55.4355C49.0423 55.1709 49.9652 55.0386 50.888 55.0386V54.9063C50.888 54.2448 51.4154 53.7155 52.0745 53.7155C51.679 53.9801 51.4154 54.3771 51.4154 54.6417C51.4154 55.0386 51.679 55.3032 52.0745 55.3032C52.2064 55.3032 52.3382 55.3032 52.47 55.1709C52.47 55.0386 52.47 55.0386 52.47 54.9063C52.47 54.3771 52.8655 53.9801 53.3929 53.9801H53.5247C52.9974 54.2448 52.7337 54.6417 52.7337 55.0386C52.7337 55.5678 53.1292 55.9647 53.6565 55.9647H53.7884V55.8324C53.7884 55.4355 54.052 55.1709 54.4475 55.1709C54.843 55.1709 55.1067 55.4355 55.1067 55.8324C55.1067 56.6262 54.1839 56.7585 53.5247 56.6262C51.5472 56.097 49.7015 55.8324 47.9877 56.097C45.7465 56.3616 42.0551 57.9493 38.1001 57.817C37.1773 57.817 36.2544 57.6847 35.3316 57.4201C35.4634 57.5524 35.4634 57.6847 35.5952 57.6847C35.9907 58.3462 36.1226 58.8754 35.7271 59.6692C35.7271 58.7431 35.0679 58.0816 34.4087 57.5524C34.1451 57.4201 34.0132 57.1554 34.1451 57.0231L34.2769 55.9647C34.2769 56.097 34.2769 56.097 34.2769 56.2293C34.2769 56.3616 34.2769 56.3616 34.4087 56.3616L34.8042 56.7585C34.9361 55.7001 34.6724 54.774 34.1451 53.8478C34.4087 53.1863 34.4087 52.3925 34.2769 51.5987C34.1451 52.1279 33.8814 52.3925 33.6177 52.5248C33.0904 52.7894 33.0904 53.3186 33.3541 53.7155C32.9586 53.4509 32.4312 52.7894 32.6949 52.2602C33.0904 51.731 34.0132 51.9956 34.1451 51.2018C33.4859 51.0695 32.8267 51.2018 32.6949 51.2018C32.2994 50.8048 31.9039 50.5402 31.2447 50.5402C30.7174 50.1433 30.19 49.8787 29.399 50.011C28.608 49.8787 28.0807 50.1433 27.5534 50.5402C26.8942 50.5402 26.4987 50.8048 26.1032 51.2018C25.9713 51.2018 25.3122 51.0695 24.653 51.2018C24.7848 51.9956 25.7077 51.731 26.1032 52.2602C26.3669 52.6571 25.8395 53.4509 25.444 53.7155C25.7077 53.3186 25.5758 52.9217 25.1803 52.5248C24.9167 52.3925 24.653 52.1279 24.5212 51.5987C24.3893 52.3925 24.3893 53.054 24.653 53.8478C23.9938 54.774 23.862 55.7001 23.9938 56.7585L24.3893 56.3616L24.5212 56.2293C24.5212 56.097 24.5212 56.097 24.5212 55.9647L24.653 57.0231C24.653 57.2878 24.653 57.4201 24.3893 57.5524C23.7302 57.9493 23.071 58.7431 23.071 59.6692C22.6755 58.8754 22.8073 58.2139 23.2028 57.6847C22.0163 57.0231 21.2253 55.9647 20.9616 55.8324C20.5661 55.4355 20.698 54.9063 20.9616 54.5094C21.6208 53.5832 21.7527 52.6571 20.9616 51.9956V51.8633C20.9616 51.3341 20.5661 50.8048 20.0388 50.6725C20.1706 50.8048 20.1706 51.0695 20.1706 51.2018C20.1706 51.4664 20.0388 51.5987 19.907 51.8633C20.0388 51.9956 20.0388 52.1279 20.0388 52.3925C20.0388 52.6571 19.907 52.9217 19.7751 53.054C19.7751 52.9217 19.7751 52.9217 19.7751 52.7894C19.7751 52.1279 19.3796 51.731 18.8523 51.5987C18.7205 51.2018 18.4568 50.8048 17.9295 50.8048C17.6658 50.8048 17.4021 50.9371 17.2703 51.0695C17.6658 51.0695 17.9295 51.3341 17.9295 51.731C17.7976 51.8633 17.6658 51.9956 17.534 52.2602C18.1931 52.2602 18.5886 52.7894 18.5886 53.3186C18.5886 53.4509 18.5886 53.4509 18.5886 53.5832C18.5886 53.3186 18.4568 53.054 18.1931 52.9217C17.7976 52.5248 17.4021 52.5248 16.8748 52.6571C16.743 52.3925 16.4793 52.2602 16.0838 52.2602C15.6883 52.2602 15.4246 52.3925 15.2928 52.6571C15.6883 52.6571 15.9519 52.7894 16.0838 53.054C15.5564 53.7155 15.5564 54.5094 16.0838 55.0386C16.4793 55.3032 16.8748 55.4355 17.2703 55.3032C17.2703 55.3032 17.2703 55.3032 17.4021 55.3032C17.534 55.3032 17.6658 55.4355 17.6658 55.5678C17.6658 55.7001 17.534 55.8324 17.4021 55.8324C17.2703 55.8324 17.2703 55.8324 17.2703 55.7001C17.1385 55.5678 17.0066 55.5678 16.8748 55.5678C16.4793 55.5678 16.2156 55.8324 16.2156 56.2293C16.2156 56.2293 16.2156 56.2293 16.2156 56.3616H16.0838C15.9519 56.3616 15.6883 56.2293 15.6883 56.2293C15.6883 56.3616 15.6883 56.3616 15.6883 56.4939C15.6883 56.8908 16.0838 57.2878 16.4793 57.4201C16.743 57.9493 17.1385 58.2139 17.7976 58.2139C18.0613 58.2139 18.325 58.0816 18.5886 57.9493C18.7205 57.817 18.8523 57.817 18.9841 57.817C19.2478 57.817 19.6433 58.0816 19.6433 58.4785C19.6433 58.7431 19.3796 59.0077 19.116 59.0077L18.5886 59.14C18.4568 59.14 18.4568 59.14 18.325 59.14C18.1931 59.14 18.1931 59.14 18.1931 59.0077L19.2478 60.0661L19.3796 60.1984C19.5115 60.1984 19.5115 60.1984 19.6433 60.1984L20.5661 60.0661C20.698 60.0661 20.698 60.0661 20.8298 60.0661C20.9617 60.0661 20.9616 60.0661 20.9616 60.1984L21.7527 60.86L21.6208 60.7277C21.489 60.7277 21.489 60.7277 21.3572 60.7277L20.4343 60.86C20.3025 60.86 20.3025 60.86 20.1706 60.86C20.0388 60.86 20.0388 60.86 20.0388 60.7277L20.9616 61.6538L21.0935 61.7861C21.2253 61.7861 21.2253 61.7861 21.3572 61.7861L22.28 61.6538C22.4118 61.6538 22.4118 61.6538 22.5437 61.6538C22.6755 61.6538 22.6755 61.6538 22.6755 61.7861L23.4665 62.4476L23.3347 62.3153C23.2028 62.3153 23.2028 62.3153 23.071 62.3153L22.1482 62.4476C22.0163 62.4476 22.0163 62.4476 21.8845 62.4476C21.7527 62.4476 21.7527 62.4476 21.7527 62.3153L22.6755 63.2414L22.8073 63.3738C22.9392 63.3738 22.9392 63.3738 23.071 63.3738L24.1257 63.1091C23.071 63.6384 22.0163 64.2999 20.8298 65.0937C20.1706 65.4906 19.3796 65.6229 18.5886 65.226C18.1931 65.0937 17.6658 64.9614 17.2703 65.0937C16.8748 65.226 16.4793 65.3583 16.3475 65.7552C16.4793 65.7552 16.743 65.6229 16.8748 65.6229C17.2703 65.6229 17.534 65.7552 17.7976 66.0198C17.4021 65.8875 16.8748 65.8875 16.4793 66.0198C15.6883 66.2845 15.1609 67.0783 15.2928 67.8721C15.0291 68.0044 14.7654 68.269 14.7654 68.6659C14.7654 68.9305 14.8973 69.0628 15.0291 69.3274C15.1609 68.9305 15.4246 68.6659 15.8201 68.6659C15.952 68.7982 16.2156 68.7982 16.3475 68.9305C16.3475 68.7982 16.4793 68.6659 16.6111 68.6659C16.6111 68.5336 16.6111 68.5336 16.6111 68.4013C16.6111 67.6075 17.2703 66.946 18.0613 66.946H18.1931C17.534 67.0783 17.1385 67.6075 17.1385 68.269C17.1385 68.4013 17.1385 68.4013 17.1385 68.5336C16.743 68.6659 16.6111 68.9305 16.6111 69.3274C16.6111 69.5921 16.743 69.7244 16.8748 69.8567C17.1385 69.3274 17.534 69.0628 18.1931 69.0628C18.4568 69.0628 18.5886 69.1951 18.8523 69.1951C18.9841 69.1951 19.116 69.1951 19.2478 69.1951C19.116 69.0628 19.116 68.7982 19.116 68.5336C19.116 67.8721 19.6433 67.4752 20.1706 67.4752H20.3025C19.7751 67.7398 19.3796 68.269 19.5115 68.6659C19.6433 68.9305 19.907 69.1951 20.3025 69.3274C20.3025 69.5921 20.1706 69.8567 20.1706 69.989C20.698 69.989 21.0935 69.5921 21.3572 69.1951C22.0163 68.9305 22.28 68.4013 22.1482 68.0044C22.1482 67.8721 22.0163 67.7398 21.8845 67.6075C21.8845 67.3429 22.1482 67.0783 22.4118 67.0783C22.6755 67.0783 22.9392 67.3429 22.9392 67.6075C22.9392 67.7398 22.9392 67.8721 22.8073 68.0044H23.9938C24.1257 68.0044 24.1257 68.0044 24.2575 68.0044L24.3893 67.8721L25.1803 66.6814L25.3122 66.5491H25.444H26.3669H26.235C26.235 66.5491 26.1032 66.5491 26.1032 66.6814L25.3122 67.8721L25.1803 68.0044C25.1803 68.0044 25.0485 68.0044 24.9167 68.0044H26.3669C26.4987 68.0044 26.4987 68.0044 26.6305 68.0044L26.7624 67.8721L27.6852 66.5491C27.026 66.1521 26.8942 65.6229 26.8942 64.8291C26.8942 64.2999 27.1579 63.7707 27.1579 63.3738V63.2414C27.1579 63.1091 27.1579 63.1091 27.1579 62.9768C27.1579 62.9768 27.1579 62.8445 27.026 62.8445L27.817 63.6384L27.9489 63.7707C27.9489 63.903 27.9489 63.903 27.9489 64.0353V64.1676C27.9489 64.4322 27.5534 65.0937 28.2125 65.7552C28.2125 65.7552 28.3444 65.8875 28.4762 65.8875L29.0035 66.1521V64.2999H29.6627V66.4168C29.6627 66.5491 29.6627 66.5491 29.6627 66.6814L29.7945 66.8137L30.4537 67.2106C30.5855 67.2106 30.5855 67.2106 30.7174 67.3429C30.8492 67.3429 30.8492 67.3429 30.9811 67.3429L32.2994 66.8137C32.1676 66.8137 32.1676 66.8137 32.0357 66.8137C31.9039 66.8137 31.9039 66.8137 31.7721 66.6814L30.3219 65.7552C30.9811 65.0937 30.5855 64.4322 30.5855 64.1676V64.0353C30.5855 63.903 30.5855 63.903 30.5855 63.7707C30.5855 63.6384 30.7174 63.6384 30.7174 63.6384L31.5084 62.8445L31.3766 62.9768C31.3766 63.1091 31.3766 63.1091 31.3766 63.2414V63.3738C31.3766 63.903 31.9039 64.8291 31.5084 65.3583L32.8267 66.1521C32.9586 66.1521 32.9586 66.1521 33.0904 66.2844C33.2222 66.2844 33.2222 66.2844 33.3541 66.2844L34.6724 65.7552C34.5406 65.7552 34.5406 65.7552 34.4087 65.7552C34.2769 65.7552 34.2769 65.7552 34.1451 65.6229L32.9586 64.5645C33.2222 63.903 32.9586 62.8445 32.6949 62.3153V62.183C32.6949 62.0507 32.6949 62.0507 32.6949 61.9184C32.6949 61.7861 32.6949 61.7861 32.6949 61.6538L33.2222 60.7277C33.2222 60.7277 33.2222 60.86 33.2222 60.9923C33.2222 61.1246 33.2222 61.1246 33.2222 61.2569L33.3541 61.6538C33.4859 61.7861 33.4859 61.9184 33.6177 62.183C34.4087 61.3892 34.6724 60.7277 34.1451 60.0661L34.0132 59.9338L33.8814 59.8015C33.8814 59.6692 33.8814 59.6692 33.8814 59.5369L34.1451 58.4785C34.1451 58.6108 34.1451 58.6108 34.1451 58.7431C34.1451 58.8754 34.1451 58.8754 34.2769 58.8754L34.8042 59.5369C35.8589 60.7277 35.1997 62.0507 34.0132 63.2414C34.0132 63.5061 34.1451 63.903 34.1451 64.0353L35.7271 65.0937C35.7271 65.0937 35.8589 65.0937 35.9907 65.226C36.1226 65.226 36.1226 65.226 36.2544 65.226L37.4409 64.6968C37.4409 64.6968 37.3091 64.6968 37.1773 64.6968C36.9136 64.6968 36.6499 64.4322 36.6499 64.1676C36.6499 63.903 36.7818 63.7707 37.0454 63.6384C41.396 62.3153 45.351 58.8754 47.9877 58.8754C49.306 58.8754 50.3607 59.6692 50.3607 60.5954C50.3607 60.7277 50.3607 60.86 50.2288 60.9923C49.7015 62.5799 50.4925 64.0353 52.6019 64.6968C52.9974 64.8291 53.261 65.0937 53.261 65.4906C53.261 65.6229 53.261 65.6229 53.261 65.7552H53.3929C53.9202 65.7552 54.4475 65.4906 54.843 64.9614C55.2385 64.9614 55.634 64.9614 56.0295 64.8291C56.0295 64.9614 56.1614 65.0937 56.1614 65.226C56.2932 65.6229 56.0295 66.1521 55.7659 66.1521C55.2385 66.2844 54.7112 66.1521 54.1839 66.1521C53.261 66.1521 52.6019 66.946 52.6019 67.7398C52.6019 67.8721 52.6019 67.8721 52.6019 68.0044C52.3382 68.1367 52.0745 68.5336 52.0745 68.7982C52.0745 68.9305 52.0745 69.1951 52.2064 69.3274C52.47 69.0628 52.8655 68.7982 53.261 68.6659C53.261 67.8721 53.9202 67.2106 54.7112 67.2106C54.843 67.2106 54.9749 67.2106 55.1067 67.2106C54.3157 67.3429 53.6565 68.0044 53.6565 68.7982V68.9305C53.5247 69.0628 53.5247 69.1951 53.5247 69.3274C53.5247 69.5921 53.6565 69.7244 53.7884 69.8567C53.9202 69.4598 54.3157 69.1951 54.7112 69.0628C54.9749 68.9305 55.3704 68.9305 55.634 68.9305C55.634 68.7982 55.634 68.6659 55.634 68.5336C55.634 67.8721 56.1614 67.2106 56.9524 67.2106H57.0842C56.5569 67.3429 56.1614 67.7398 56.1614 68.269C56.1614 68.6659 56.2932 68.9305 56.5569 69.0628C56.5569 69.3274 56.6887 69.5921 56.8206 69.7244C56.9524 69.1951 57.3479 68.9305 57.7434 68.9305C58.1389 68.9305 58.5344 68.9305 58.7981 68.7982C59.1936 68.6659 59.5891 68.269 59.5891 67.7398C59.5891 67.3429 59.4572 67.0783 59.1936 66.946C59.3254 66.4167 59.3254 65.4906 59.0617 64.8291H59.1936C59.3254 64.9614 59.5891 65.0937 59.7209 65.3583ZM37.5728 74.4873C37.5728 74.355 37.5728 74.2227 37.5728 74.0904C37.5728 73.8258 37.8364 73.6935 38.1001 73.6935C38.3638 73.6935 38.6274 73.9581 38.6274 74.2227C38.6274 74.355 38.6274 74.4873 38.4956 74.6196C38.6274 74.6196 38.6274 74.6196 38.7593 74.6196C39.0229 74.6196 39.2866 74.6196 39.5503 74.4873C39.9458 74.355 40.2094 74.0904 40.2094 73.6935C40.2094 73.1643 39.8139 72.8997 39.4184 72.8997C39.4184 72.8997 39.4184 72.8997 39.2866 72.8997C39.4184 72.8997 39.5503 72.7674 39.6821 72.7674C40.2094 72.7674 40.6049 73.1643 40.6049 73.6935C40.6049 73.6935 40.6049 73.6935 40.6049 73.8258C42.0551 73.8258 43.769 72.5028 44.0326 71.9735C43.5053 72.1058 43.1098 72.1058 42.5825 72.1058C42.0551 72.1058 41.396 71.9735 40.8686 71.8412C40.2094 71.7089 39.4184 71.5766 38.8911 71.5766C37.0454 71.5766 35.5952 72.7674 35.5952 74.2227C35.5952 75.4134 36.6499 76.4719 37.9683 76.7365C41.1323 77.398 44.8236 75.5457 47.8558 74.8842C48.6468 74.0904 49.5697 73.4289 50.4925 73.032C50.4925 72.8997 50.4925 72.7674 50.4925 72.6351C46.4057 73.2966 42.7143 75.4134 39.2866 75.4134C38.3638 75.5457 37.7046 75.1488 37.5728 74.4873ZM37.4409 66.946H37.5728C36.9136 67.0783 36.5181 67.6075 36.2544 68.1367C35.8589 68.269 35.5952 68.6659 35.5952 69.0628C35.5952 69.3274 35.5952 69.4597 35.7271 69.5921C36.1226 69.1951 36.5181 68.9305 37.0454 68.7982C37.1773 68.1367 37.8364 67.4752 38.4956 67.4752C37.8364 67.7398 37.4409 68.4013 37.4409 69.0628C37.4409 69.3274 37.4409 69.5921 37.5728 69.8567C37.7046 69.4598 38.1001 69.1951 38.4956 69.1951C38.6274 69.1951 38.7593 69.1951 38.7593 69.1951C38.8911 69.1951 39.0229 69.3274 39.1548 69.3274C39.8139 69.3274 40.4731 68.7982 40.4731 68.0044C40.4731 67.8721 40.4731 67.7398 40.4731 67.6075C40.8686 67.7398 41.0005 68.0044 41.0005 68.4013C41.0005 68.5336 41.0004 68.6659 40.8686 68.7982C41.0004 68.7982 41.0005 68.7982 41.1323 68.7982C41.9233 68.7982 42.7143 68.1367 42.7143 67.3429C43.1098 67.0783 43.5053 66.8137 43.769 66.4168L44.0326 67.4752C44.0326 67.6075 44.0326 67.6075 44.0326 67.7398C44.0326 67.8721 44.0326 67.8721 43.9008 67.8721L44.8236 66.946L44.9555 66.8137C44.9555 66.6814 44.9555 66.6814 44.9555 66.5491L44.6918 65.226C44.6918 65.0937 44.6918 65.0937 44.6918 64.9614C44.6918 64.8291 44.6918 64.8291 44.8236 64.8291L45.6146 64.0353L45.4828 64.1676C45.4828 64.2999 45.4828 64.2999 45.4828 64.4322L45.7465 65.7552C45.7465 65.8875 45.7465 65.8875 45.7465 66.0198C45.7465 66.1521 45.7465 66.1521 45.6146 66.1521L46.4057 65.226L46.5375 65.0937C46.5375 64.9614 46.5375 64.9614 46.5375 64.8291L46.2738 63.5061C46.2738 63.3738 46.2738 63.3738 46.2738 63.2414C46.2738 63.1091 46.2738 63.1091 46.4057 63.1091L47.1967 62.3153L47.0648 62.4476C47.0648 62.5799 47.0648 62.5799 47.0648 62.7122L47.3285 64.0353C47.3285 64.1676 47.3285 64.1676 47.3285 64.2999C47.3285 64.4322 47.3285 64.4322 47.1967 64.4322L47.9877 63.5061L48.1195 63.3738C48.1195 63.2415 48.1195 63.2415 48.1195 63.1091L47.9877 62.4476C47.8558 61.6538 48.6468 60.86 49.1742 60.7277C49.306 60.5954 49.306 60.4631 49.306 60.3308C49.306 59.5369 48.3832 59.0077 47.3285 59.0077C46.8012 59.0077 46.2738 59.14 46.0102 59.4046C46.142 59.8015 46.142 60.3308 44.8236 60.4631C43.769 60.5954 42.7143 60.86 41.9233 61.5215C40.7368 62.4476 40.8686 63.7707 40.2094 64.2999C40.4731 64.4322 40.8686 64.4322 41.2641 64.2999C41.5278 64.2999 41.7915 64.1676 41.9233 64.0353C41.7915 64.2999 41.5278 64.4322 41.1323 64.6968C41.0005 65.0937 40.6049 65.6229 40.0776 65.7552C39.6821 65.8875 39.4184 65.8875 39.1548 65.7552L37.8364 65.3583C37.7046 65.3583 37.4409 65.226 37.3091 65.226C36.2544 65.226 35.4634 66.0198 35.3316 66.946C34.8042 67.0783 34.5406 67.4752 34.5406 67.8721C34.5406 68.0044 34.5406 68.269 34.6724 68.4013C34.9361 68.1367 35.4634 67.8721 35.8589 67.7398C36.1226 67.3429 36.6499 66.946 37.4409 66.946ZM30.3219 79.2503C30.4537 78.8534 30.4537 78.3241 30.4537 77.9272L30.0582 78.4564C29.9264 78.3241 29.9264 78.1918 29.9264 78.0595C29.9264 77.9272 29.7945 77.9272 29.7945 77.9272C29.7945 77.9272 29.7945 77.9272 29.6627 77.9272H29.5309H29.399H29.2672C29.2672 77.9272 29.1354 77.9272 29.1354 78.0595C29.1354 78.1918 29.0035 78.3241 29.0035 78.4564L28.608 77.9272C28.608 78.3241 28.608 78.7211 28.7399 79.2503C29.0035 79.2503 29.2672 79.118 29.6627 79.118C29.6627 79.118 29.9264 79.2503 30.3219 79.2503ZM30.4537 80.441C30.4537 79.9118 29.9264 79.7795 29.399 79.7795C28.8717 79.7795 28.3444 79.9118 28.3444 80.441C28.3444 81.1025 29.0035 80.7056 29.399 80.7056C29.7945 80.7056 30.4537 81.1025 30.4537 80.441ZM31.9039 76.8688C31.7721 76.8688 31.7721 77.0011 31.7721 77.1334C31.7721 77.6626 31.5084 77.9272 31.1129 78.0595C31.1129 78.7211 30.981 79.118 30.8492 79.6472C31.2447 80.5733 30.9811 81.2348 30.5855 81.3671C30.19 81.4994 29.7945 81.3671 29.399 81.3671C29.0035 81.3671 28.4762 81.4994 28.2125 81.3671C27.817 81.2348 27.5534 80.5733 27.9489 79.6472C27.817 79.118 27.6852 78.5887 27.6852 78.0595C27.2897 77.9272 27.026 77.6626 27.026 77.1334C27.026 77.0011 26.8942 77.0011 26.8942 76.8688C25.444 76.4719 25.3122 74.6196 25.9714 74.0904C25.8395 74.8842 25.8395 76.075 27.5534 76.2073C27.5534 77.1334 27.9489 77.398 28.3444 77.398C28.7399 77.398 28.8717 77.2657 29.0035 77.2657C29.2672 77.1334 29.1354 76.8688 29.0035 76.7365C28.7399 76.4719 28.608 76.2073 28.7399 75.9427C28.7399 75.9427 28.7399 75.8104 28.8717 75.8104H29.399H29.9264C29.9264 75.8104 30.0582 75.8104 30.0582 75.9427C30.0582 76.2073 30.0582 76.4719 29.7945 76.7365C29.6627 76.8688 29.5309 77.1334 29.7945 77.2657C29.9264 77.2657 30.0582 77.398 30.4537 77.398C30.8492 77.398 31.3766 77.1334 31.2447 76.2073C32.9586 76.075 32.8267 74.8842 32.8267 74.0904C33.6177 74.4873 33.4859 76.4719 31.9039 76.8688ZM32.4312 73.5612C32.4312 73.9581 32.1676 74.4873 31.7721 74.4873H31.5084C31.6402 74.6196 31.6402 74.7519 31.6402 74.8842C31.6402 75.1488 31.3766 75.4134 31.1129 75.4134C30.8492 75.4134 30.5855 75.1488 30.5855 74.8842C30.5855 74.7519 30.5855 74.6196 30.7174 74.4873H30.3219C30.19 74.4873 30.0582 74.4873 30.0582 74.6196C30.0582 74.4873 30.0582 74.2227 30.0582 74.0904C30.0582 73.9581 30.19 73.8258 30.3219 73.8258H31.7721C32.0357 73.8258 32.2994 73.8258 32.4312 73.5612ZM32.1676 72.8997H31.6402C31.3766 72.8997 31.2447 72.7674 30.9811 72.6351L30.3219 71.8412C30.19 71.7089 30.19 71.5766 30.0582 71.5766H30.5855C30.7174 71.5766 30.9811 71.7089 30.9811 71.8412L31.6402 72.6351C32.0357 72.7674 32.0357 72.7674 32.1676 72.8997ZM29.5309 71.5766L30.3219 72.6351C30.4537 72.7674 30.5855 72.8997 30.7174 73.032H30.0582C29.7945 73.032 29.6627 72.8997 29.5309 72.7674L28.8717 71.8412C28.608 71.4443 28.608 71.4443 28.3444 71.312H29.0035C29.1354 71.1797 29.399 71.312 29.5309 71.5766ZM27.6852 71.7089L28.3444 72.5027C28.4762 72.6351 28.4762 72.7674 28.7399 72.7674H28.2125C27.9489 72.7674 27.817 72.6351 27.5534 72.5027L26.8942 71.7089C26.7624 71.5766 26.7624 71.4443 26.6305 71.4443H27.2897C27.4215 71.4443 27.6852 71.5766 27.6852 71.7089ZM27.4215 74.4873H27.1579C26.7624 74.4873 26.4987 73.9581 26.4987 73.5612C26.6305 73.8258 26.8942 73.8258 27.1579 73.8258H28.608C28.7399 73.8258 28.8717 73.9581 28.8717 74.0904C28.8717 74.2227 28.8717 74.355 28.8717 74.6196C28.7399 74.4873 28.7399 74.4873 28.608 74.4873H28.2125C28.3444 74.6196 28.3444 74.7519 28.3444 74.8842C28.3444 75.1488 28.0807 75.4134 27.817 75.4134C27.5534 75.4134 27.2897 75.1488 27.2897 74.8842C27.2897 74.7519 27.2897 74.6196 27.4215 74.4873ZM25.5758 81.6317L25.7077 81.2348C25.7077 81.1025 25.7077 81.1025 25.7077 80.9702C25.7077 80.8379 25.7077 80.8379 25.7077 80.7056L26.235 81.6317C26.235 81.7641 26.235 81.7641 26.235 81.8964C26.235 82.0287 26.235 82.0287 26.235 82.161V82.2933C25.9713 82.9548 25.7077 84.0132 25.9714 84.6747C25.1803 84.4101 25.0485 83.7486 25.0485 83.2194C23.5983 81.8964 23.3347 80.5733 24.2575 79.3826L24.7848 78.7211L24.9167 78.5887C24.9167 78.4564 24.9167 78.4564 24.9167 78.3241L25.0485 79.3826C25.0485 79.5149 25.0485 79.5149 25.0485 79.6472C25.0485 79.7795 25.0485 79.7795 24.9167 79.9118L24.7848 80.0441C24.2575 80.7056 24.3893 81.4994 25.1803 82.161C25.3122 81.8964 25.444 81.8964 25.5758 81.6317ZM59.7209 85.4686C59.7209 85.3363 59.8527 85.204 59.8527 85.0717C59.8527 84.4101 59.3254 83.8809 58.6662 83.8809H57.4797C57.3479 83.8809 57.3479 83.8809 57.2161 83.8809L57.0842 83.7486L56.5569 82.9548L56.6887 83.0871C56.6887 83.0871 56.8206 83.0871 56.9524 83.0871H58.4026C58.5344 83.0871 58.5344 83.0871 58.6662 83.0871L58.7981 83.2194L58.1389 82.161L58.0071 82.0287C58.0071 82.0287 57.8752 82.0287 57.7434 82.0287H56.2932C56.1614 82.0287 56.1614 82.0287 56.0295 82.0287L55.8977 81.8964L55.2385 80.9702L55.3704 81.1025C55.3704 81.1025 55.5022 81.1025 55.634 81.1025H57.0842C57.2161 81.1025 57.2161 81.1025 57.3479 81.1025L57.4797 81.2348L56.8206 80.1764L56.6887 80.0441C56.6887 80.0441 56.5569 80.0441 56.425 80.0441H55.2385C55.1067 80.0441 55.1067 80.0441 54.9749 80.0441L54.843 79.9118L54.052 78.5887C55.634 78.4564 56.9524 77.5303 57.2161 76.3396C57.6116 74.7519 56.0295 73.2966 53.7884 72.8997C53.3929 72.8997 53.1292 72.5028 53.1292 72.1058C53.1292 71.7089 53.3929 71.4443 53.6565 71.312C53.3929 71.1797 53.1292 71.1797 52.8655 71.1797C51.8109 71.1797 51.0198 71.8412 51.0198 72.7674C51.0198 72.8997 51.0198 73.032 51.1517 73.1643C50.097 73.6935 49.0423 74.4873 48.2513 75.4134C49.0423 75.1488 49.9652 75.0165 50.888 75.0165V74.8842C50.888 74.2227 51.4154 73.6935 52.0745 73.6935C51.679 73.9581 51.4154 74.355 51.4154 74.6196C51.4154 75.0165 51.679 75.2811 52.0745 75.2811C52.2064 75.2811 52.3382 75.2811 52.47 75.1488C52.47 75.0165 52.47 75.0165 52.47 74.8842C52.47 74.355 52.8655 73.9581 53.3929 73.9581H53.5247C53.1292 74.0904 52.9974 74.4873 52.9974 74.8842C52.9974 75.4134 53.3929 75.8104 53.9202 75.8104H54.052V75.6781C54.052 75.2811 54.3157 75.0165 54.7112 75.0165C55.1067 75.0165 55.3704 75.2811 55.3704 75.6781C55.3704 76.4719 54.4475 76.6042 53.7884 76.4719C51.8109 75.9427 49.9652 75.6781 48.2513 75.9427C46.0101 76.2073 42.3188 77.7949 38.3638 77.6626C37.4409 77.6626 36.5181 77.5303 35.5952 77.2657C35.7271 77.398 35.7271 77.5303 35.8589 77.5303C36.2544 78.1918 36.3862 78.7211 35.9907 79.5149C35.9907 78.5887 35.3316 77.9272 34.6724 77.5303C34.4087 77.398 34.2769 77.1334 34.4087 77.0011L34.5406 75.9427C34.5406 76.075 34.5406 76.075 34.5406 76.2073C34.5406 76.3396 34.5406 76.3396 34.6724 76.3396L35.0679 76.7365C35.1997 75.6781 34.9361 74.7519 34.4087 73.8258C34.6724 73.1643 34.6724 72.3704 34.5406 71.5766C34.4087 72.1058 34.1451 72.3704 33.8814 72.5027C33.3541 72.7674 33.3541 73.2966 33.6177 73.6935C33.2222 73.4289 32.6949 72.7674 32.9586 72.2381C33.3541 71.7089 34.2769 71.9735 34.4087 71.1797C33.7496 71.0474 33.0904 71.1797 32.9586 71.1797C32.5631 70.7828 32.1676 70.5182 31.5084 70.5182C30.981 70.1213 30.4537 69.8567 29.6627 69.989C28.8717 69.8567 28.3444 70.1213 27.817 70.5182C27.1579 70.5182 26.7624 70.7828 26.3669 71.1797C26.235 71.1797 25.5758 71.0474 24.9167 71.1797C25.0485 71.9735 25.9713 71.7089 26.3669 72.2381C26.6305 72.6351 26.1032 73.4289 25.7077 73.6935C25.9713 73.2966 25.8395 72.8997 25.444 72.5027C25.1803 72.3704 24.9167 72.1058 24.7848 71.5766C24.653 72.3704 24.653 73.032 24.9167 73.8258C24.2575 74.7519 24.1257 75.6781 24.2575 76.7365L24.653 76.3396L24.7848 76.2073C24.7848 76.075 24.7848 76.075 24.7848 75.9427L24.9167 77.0011C24.9167 77.2657 24.9167 77.398 24.653 77.5303C23.9938 77.9272 23.3347 78.7211 23.3347 79.5149C22.9392 78.7211 23.071 78.0595 23.4665 77.5303C22.28 76.8688 21.489 75.8104 21.2253 75.6781C20.8298 75.2811 20.9617 74.7519 21.2253 74.355C21.8845 73.4289 22.0163 72.5027 21.2253 71.8412V71.7089C21.2253 71.1797 20.8298 70.6505 20.3025 70.5182C20.4343 70.6505 20.4343 70.9151 20.4343 71.0474C20.4343 71.312 20.3025 71.4443 20.1706 71.7089C20.3025 71.8412 20.3025 71.9735 20.3025 72.2381C20.3025 72.5027 20.1706 72.7674 20.0388 72.8997C20.0388 72.7674 20.0388 72.7674 20.0388 72.6351C20.0388 71.9735 19.6433 71.5766 19.116 71.4443C18.9841 71.0474 18.7205 70.6505 18.1931 70.6505C17.9295 70.6505 17.6658 70.7828 17.534 70.9151C17.9295 70.9151 18.1931 71.1797 18.1931 71.5766C18.0613 71.7089 17.9295 71.8412 17.7976 72.1058C18.4568 72.1058 18.8523 72.6351 18.8523 73.1643C18.8523 73.2966 18.8523 73.2966 18.8523 73.4289C18.8523 73.1643 18.7205 72.8997 18.4568 72.7674C18.0613 72.3704 17.6658 72.3704 17.1385 72.5027C17.0066 72.2381 16.743 72.1058 16.3475 72.1058C15.9519 72.1058 15.6883 72.2381 15.5564 72.5027C15.952 72.5027 16.2156 72.6351 16.3475 72.8997C15.8201 73.5612 15.8201 74.355 16.3475 74.8842C16.743 75.1488 17.1385 75.2811 17.534 75.1488C17.534 75.1488 17.534 75.1488 17.6658 75.1488C17.7976 75.1488 17.9295 75.2811 17.9295 75.4134C17.9295 75.5457 17.7976 75.6781 17.6658 75.6781C17.534 75.6781 17.534 75.6781 17.534 75.5457C17.4021 75.4134 17.2703 75.4134 17.1385 75.4134C16.743 75.4134 16.4793 75.6781 16.4793 76.075C16.4793 76.075 16.4793 76.075 16.4793 76.2073H16.3475C16.2156 76.2073 15.952 76.075 15.952 76.075C15.952 76.2073 15.952 76.2073 15.952 76.3396C15.952 76.7365 16.3475 77.1334 16.743 77.2657C17.0066 77.7949 17.4021 78.0595 18.0613 78.0595C18.325 78.0595 18.5886 77.9272 18.8523 77.7949C18.9841 77.6626 19.116 77.6626 19.2478 77.6626C19.5115 77.6626 19.907 77.9272 19.907 78.3241C19.907 78.5887 19.6433 78.8534 19.3796 78.8534L18.8523 78.9857C18.7205 78.9857 18.7205 78.9857 18.5886 78.9857C18.4568 78.9857 18.4568 78.9857 18.4568 78.8534L19.5115 79.9118L19.6433 80.0441C19.7751 80.0441 19.7751 80.0441 19.907 80.0441L20.8298 79.9118C20.9617 79.9118 20.9616 79.9118 21.0935 79.9118C21.2253 79.9118 21.2253 79.9118 21.2253 80.0441L22.0163 80.7056L21.8845 80.5733C21.7527 80.5733 21.7527 80.5733 21.6208 80.5733L20.698 80.7056C20.5661 80.7056 20.5661 80.7056 20.4343 80.7056C20.3025 80.7056 20.3025 80.7056 20.3025 80.5733L21.2253 81.4994L21.3572 81.6317C21.489 81.6317 21.489 81.6317 21.6208 81.6317L22.5437 81.4994C22.6755 81.4994 22.6755 81.4994 22.8073 81.4994C22.9392 81.4994 22.9392 81.4994 22.9392 81.6317L23.7302 82.2933L23.5983 82.161C23.4665 82.161 23.4665 82.161 23.3347 82.161L22.4118 82.2933C22.28 82.2933 22.28 82.2933 22.1482 82.2933C22.0163 82.2933 22.0163 82.2933 22.0163 82.161L22.9392 83.0871L23.071 83.2194C23.2028 83.2194 23.2028 83.2194 23.3347 83.2194L24.3893 82.9548C23.3347 83.484 22.28 84.1455 21.0935 84.9393C20.4343 85.3363 19.6433 85.4686 18.8523 85.0717C18.4568 84.9394 17.9295 84.807 17.534 84.9393C17.1385 85.0717 16.743 85.204 16.6111 85.6009C16.743 85.6009 17.0066 85.4686 17.1385 85.4686C17.534 85.4686 17.7976 85.6009 18.0613 85.8655C17.6658 85.7332 17.1385 85.7332 16.743 85.8655C15.9519 86.1301 15.4246 86.9239 15.5564 87.7178C15.2928 87.8501 15.0291 88.1147 15.0291 88.5116C15.0291 88.7762 15.1609 88.9085 15.2928 89.1731C15.4246 88.7762 15.6883 88.5116 16.0838 88.5116C16.2156 88.6439 16.4793 88.6439 16.6111 88.7762C16.6111 88.6439 16.743 88.5116 16.8748 88.5116C16.8748 88.3793 16.8748 88.3793 16.8748 88.247C16.8748 87.4531 17.534 86.7916 18.325 86.7916H18.4568C17.7976 86.9239 17.4021 87.4531 17.4021 88.1147C17.4021 88.247 17.4021 88.247 17.4021 88.3793C17.0066 88.5116 16.8748 88.7762 16.8748 89.1731C16.8748 89.4377 17.0066 89.57 17.1385 89.7023C17.4021 89.1731 17.7976 88.9085 18.4568 88.9085C18.7205 88.9085 18.8523 89.0408 19.116 89.0408C19.2478 89.0408 19.3796 89.0408 19.5115 89.0408C19.3796 88.9085 19.3796 88.6439 19.3796 88.3793C19.3796 87.7178 19.907 87.3208 20.4343 87.3208H20.5661C20.0388 87.5854 19.6433 88.1147 19.7751 88.5116C19.907 88.7762 20.1706 89.0408 20.5661 89.1731C20.5661 89.4377 20.4343 89.7023 20.4343 89.8346C20.9616 89.8346 21.3572 89.4377 21.6208 89.0408C22.28 88.7762 22.5437 88.247 22.4118 87.8501C22.4118 87.7177 22.28 87.5854 22.1482 87.4531C22.1482 87.1885 22.4118 86.9239 22.6755 86.9239C22.9392 86.9239 23.2028 87.1885 23.2028 87.4531C23.2028 87.5854 23.2028 87.7177 23.071 87.8501H24.2575C24.3893 87.8501 24.3893 87.8501 24.5212 87.8501L24.653 87.7178L25.444 86.527L25.5758 86.3947H25.7077H26.6305H26.4987C26.4987 86.3947 26.3669 86.3947 26.3669 86.527L25.5758 87.7178L25.444 87.8501C25.444 87.8501 25.3122 87.8501 25.1803 87.8501H26.6305C26.7624 87.8501 26.7624 87.8501 26.8942 87.8501L27.026 87.7178L27.9489 86.3947C27.2897 85.9978 27.1579 85.4686 27.1579 84.6747C27.1579 84.1455 27.4215 83.6163 27.4215 83.2194V83.0871C27.4215 82.9548 27.4215 82.9548 27.4215 82.8225C27.4215 82.8225 27.4215 82.6902 27.2897 82.6902L28.0807 83.484L28.2125 83.6163C28.2125 83.7486 28.2125 83.7486 28.2125 83.8809V84.0132C28.2125 84.2778 27.817 84.9393 28.4762 85.6009C28.4762 85.6009 28.608 85.7332 28.7399 85.7332L29.2672 85.9978V84.1455H29.9264V86.2624C29.9264 86.3947 29.9264 86.3947 29.9264 86.527L30.0582 86.6593L30.7174 87.0562C30.8492 87.0562 30.8492 87.0562 30.9811 87.1885C31.1129 87.1885 31.1129 87.1885 31.2447 87.1885L32.5631 86.6593C32.4312 86.6593 32.4312 86.6593 32.2994 86.6593C32.1676 86.6593 32.1676 86.6593 32.0357 86.527L30.5855 85.6009C31.2447 84.9393 30.8492 84.2778 30.8492 84.0132V83.8809C30.8492 83.7486 30.8492 83.7486 30.8492 83.6163C30.8492 83.484 30.9811 83.484 30.9811 83.484L31.7721 82.6902L31.6402 82.8225C31.6402 82.9548 31.6402 82.9548 31.6402 83.0871V83.2194C31.6402 83.7486 32.1676 84.6747 31.7721 85.204L33.0904 85.9978C33.2222 85.9978 33.2222 85.9978 33.3541 86.1301C33.4859 86.1301 33.4859 86.1301 33.6177 86.1301L34.9361 85.6009C34.8042 85.6009 34.8042 85.6009 34.6724 85.6009C34.5406 85.6009 34.5406 85.6009 34.4087 85.4686L32.9586 84.5424C33.2222 83.8809 32.9586 82.8225 32.6949 82.2933V82.161C32.6949 82.0287 32.6949 82.0287 32.6949 81.8964C32.6949 81.7641 32.6949 81.7641 32.6949 81.6317L33.2222 80.7056C33.2222 80.8379 33.2222 80.8379 33.2222 80.9702C33.2222 81.1025 33.2222 81.1025 33.2222 81.2348L33.3541 81.6317C33.4859 81.7641 33.4859 81.8964 33.6177 82.161C34.4087 81.3671 34.6724 80.7056 34.1451 80.0441L34.0132 79.9118C34.0132 79.9118 33.8814 79.7795 33.8814 79.6472C33.8814 79.5149 33.8814 79.5149 33.8814 79.3826L34.1451 78.3241C34.1451 78.4564 34.1451 78.4564 34.1451 78.5887C34.1451 78.7211 34.1451 78.7211 34.2769 78.7211L34.8042 79.3826C35.8589 80.5733 35.1997 82.0287 34.0132 83.0871C34.0132 83.3517 34.1451 83.7486 34.1451 83.8809L35.7271 84.9393C35.7271 84.9393 35.8589 84.9394 35.9907 85.0717C36.1226 85.0717 36.1226 85.0717 36.2544 85.0717L37.4409 84.5424C37.4409 84.5424 37.3091 84.5424 37.1773 84.5424C36.9136 84.5424 36.6499 84.2778 36.6499 84.0132C36.6499 83.7486 36.7818 83.6163 37.0454 83.484C41.396 82.161 45.351 78.7211 47.9877 78.7211C49.306 78.7211 50.3607 79.5149 50.3607 80.441C50.3607 80.5733 50.3607 80.7056 50.2288 80.8379C49.7015 82.4256 50.4925 83.8809 52.6019 84.5424C52.9974 84.6747 53.261 84.9394 53.261 85.3363C53.261 85.4686 53.261 85.4686 53.261 85.6009H53.3929C53.9202 85.6009 54.4475 85.3363 54.843 84.807C55.2385 84.807 55.634 84.8071 56.0295 84.6747C56.0295 84.8071 56.1614 84.9394 56.1614 85.0717C56.2932 85.4686 56.0295 85.9978 55.7659 85.9978C55.2385 86.1301 54.7112 85.9978 54.1839 85.9978C53.261 85.9978 52.6019 86.7916 52.6019 87.5854C52.6019 87.7177 52.6019 87.7177 52.6019 87.8501C52.3382 87.9824 52.0745 88.3793 52.0745 88.6439C52.0745 88.7762 52.0745 89.0408 52.2064 89.1731C52.47 88.9085 52.8655 88.6439 53.261 88.5116C53.261 87.7177 53.9202 87.0562 54.7112 87.0562C54.843 87.0562 54.9749 87.0562 55.1067 87.0562C54.3157 87.1885 53.6565 87.8501 53.6565 88.6439V88.7762C53.5247 88.9085 53.5247 89.0408 53.5247 89.1731C53.5247 89.4377 53.6565 89.57 53.7884 89.7023C53.9202 89.4377 54.3157 89.0408 54.7112 88.9085C54.9749 88.7762 55.3704 88.7762 55.634 88.7762C55.634 88.6439 55.634 88.5116 55.634 88.3793C55.634 87.7178 56.1614 87.0562 56.9524 87.0562H57.0842C56.5569 87.1885 56.1614 87.5854 56.1614 88.1147C56.1614 88.5116 56.2932 88.7762 56.5569 88.9085C56.5569 89.1731 56.6887 89.4377 56.8206 89.57C56.9524 89.0408 57.3479 88.7762 57.7434 88.7762C58.1389 88.7762 58.5344 88.7762 58.7981 88.6439C59.1936 88.5116 59.5891 88.1147 59.5891 87.5854C59.5891 87.1885 59.4572 86.9239 59.1936 86.7916C59.3254 86.2624 59.3254 85.3363 59.0617 84.6747H59.1936C59.3254 85.0717 59.5891 85.204 59.7209 85.4686ZM75.541 14.9504H74.0908V104.917H75.541V14.9504Z" fill="white"/>
<path d="M231.633 57.6847H233.215C233.742 57.6847 234.006 57.817 234.269 58.0816C234.533 58.3462 234.665 58.7431 234.665 59.2723C234.665 59.8016 234.533 60.1985 234.269 60.4631C234.006 60.7277 233.61 60.86 233.215 60.86H231.633V57.6847ZM233.215 62.0507C233.61 62.0507 234.006 62.183 234.269 62.4476C234.533 62.7122 234.665 63.1092 234.665 63.6384V64.5645C234.665 64.8291 234.665 65.0937 234.665 65.3583C234.665 65.6229 234.665 65.8876 234.797 65.8876H236.511V65.7552C236.379 65.6229 236.379 65.4906 236.379 65.226C236.379 64.9614 236.379 64.6968 236.379 64.4322V63.5061C236.379 62.9769 236.247 62.4476 235.983 62.0507C235.72 61.6538 235.324 61.3892 234.929 61.2569C235.324 60.9923 235.72 60.7277 235.983 60.3308C236.247 59.9339 236.379 59.5369 236.379 59.0077C236.379 58.0816 236.115 57.4201 235.588 56.8909C235.06 56.3616 234.269 56.097 233.347 56.097H230.183V65.6229H231.896V61.7861H233.215V62.0507ZM225.964 56.3616V62.5799C225.964 63.2415 225.832 63.7707 225.437 64.1676C225.041 64.5645 224.646 64.6968 224.118 64.6968C223.591 64.6968 223.064 64.5645 222.8 64.1676C222.404 63.7707 222.273 63.2415 222.273 62.5799V56.3616H220.559V62.5799C220.559 63.6384 220.822 64.5645 221.482 65.0937C222.141 65.7552 222.932 66.0199 223.986 66.0199C225.041 66.0199 225.832 65.7552 226.491 65.0937C227.15 64.4322 227.414 63.6384 227.414 62.5799V56.3616H225.964ZM216.604 56.3616V62.5799C216.604 63.2415 216.472 63.7707 216.076 64.1676C215.681 64.5645 215.285 64.6968 214.758 64.6968C214.231 64.6968 213.703 64.5645 213.44 64.1676C213.044 63.7707 212.912 63.2415 212.912 62.5799V56.3616H211.198V62.5799C211.198 63.6384 211.462 64.5645 212.121 65.0937C212.78 65.6229 213.571 66.0199 214.626 66.0199C215.681 66.0199 216.472 65.7552 217.131 65.0937C217.79 64.4322 218.054 63.6384 218.054 62.5799V56.3616H216.604ZM209.616 56.3616H203.025V57.6847H205.398V66.0199H207.112V57.6847H209.616V56.3616ZM201.047 56.3616H199.333V62.9769L195.642 56.3616H193.928V65.8876H195.642V59.2723L199.333 65.8876H201.047V56.3616ZM191.819 60.3308H188.259V57.6847H192.346V56.3616H186.545V65.8876H192.346V64.5645H188.259V61.5215H191.819V60.3308ZM184.436 61.1246H181.14V62.3153H182.854V64.2999C182.722 64.4322 182.459 64.5645 182.195 64.6968C181.931 64.8291 181.536 64.8291 181.14 64.8291C180.481 64.8291 180.086 64.5645 179.69 64.0353C179.295 63.5061 179.163 62.8446 179.163 62.0507V60.0662C179.163 59.2723 179.295 58.6108 179.69 58.2139C180.086 57.6847 180.481 57.4201 181.14 57.4201C181.668 57.4201 182.063 57.5524 182.459 57.817C182.722 58.0816 182.854 58.4785 182.854 59.14H184.436C184.436 58.2139 184.172 57.5524 183.513 57.0232C182.986 56.4939 182.063 56.2293 181.008 56.2293C179.954 56.2293 179.163 56.6262 178.372 57.2878C177.713 58.0816 177.317 59.0077 177.317 60.0662V62.183C177.317 63.3738 177.713 64.2999 178.372 64.9614C179.031 65.6229 179.954 66.0199 181.008 66.0199C181.931 66.0199 182.59 65.8876 183.118 65.6229C183.645 65.3583 184.041 64.9614 184.304 64.5645V61.1246H184.436ZM172.176 58.7431L173.494 62.5799H170.989L172.176 58.7431ZM174.549 66.0199H176.262L173.098 56.4939H171.384L168.22 66.0199H169.934L170.593 63.903H173.889L174.549 66.0199ZM163.343 58.7431L164.661 62.5799H162.156L163.343 58.7431ZM165.584 66.0199H167.298L164.134 56.4939H162.42L159.256 66.0199H160.97L161.629 63.903H164.925L165.584 66.0199ZM157.542 56.3616H155.828V62.9769L152.137 56.3616H150.423V65.8876H152.137V59.2723L155.828 65.8876H157.542V56.3616ZM148.05 56.3616H146.336V62.9769L142.645 56.3616H140.931V65.8876H142.645V59.2723L146.336 65.8876H148.05V56.3616ZM137.108 62.183C137.108 62.9769 136.976 63.6384 136.58 64.1676C136.185 64.6968 135.789 64.8291 135.262 64.8291C134.603 64.8291 134.207 64.5645 133.812 64.1676C133.416 63.6384 133.284 62.9769 133.284 62.183V60.1985C133.284 59.4046 133.416 58.7431 133.812 58.2139C134.075 57.6847 134.603 57.5524 135.13 57.5524C135.657 57.5524 136.185 57.817 136.448 58.2139C136.844 58.7431 136.976 59.2723 136.976 60.1985V62.183H137.108ZM138.821 60.1985C138.821 59.0077 138.558 58.0816 137.899 57.4201C137.239 56.7586 136.448 56.3616 135.394 56.3616C134.339 56.3616 133.548 56.7586 132.889 57.4201C132.23 58.0816 131.966 59.14 131.966 60.1985V62.183C131.966 63.3738 132.23 64.2999 132.889 65.0937C133.548 65.7552 134.339 66.1522 135.394 66.1522C136.448 66.1522 137.239 65.7552 137.899 65.0937C138.558 64.4322 138.821 63.3738 138.821 62.183V60.1985ZM128.538 66.0199H130.648L127.616 60.86L130.516 56.3616H128.407L126.165 60.4631H125.506V56.3616H123.924V65.8876H125.638V61.7861H126.297L128.538 66.0199ZM120.233 66.0199H122.342L119.178 60.86L122.078 56.3616H119.969L117.728 60.4631H117.069V56.3616H115.355V65.8876H117.069V61.7861H117.728L120.233 66.0199ZM111.4 64.4322C111.136 64.6968 110.741 64.8291 110.213 64.8291C109.686 64.8291 109.291 64.6968 109.027 64.4322C108.763 64.1676 108.5 63.7707 108.5 63.1092H106.786C106.786 64.0353 107.049 64.8291 107.709 65.3583C108.368 65.8876 109.159 66.0199 110.213 66.0199C111.268 66.0199 112.059 65.7552 112.586 65.3583C113.246 64.8291 113.509 64.2999 113.509 63.3738C113.509 62.5799 113.246 61.9184 112.85 61.5215C112.323 61.1246 111.664 60.7277 110.609 60.4631C109.818 60.1985 109.422 60.0662 109.159 59.8016C108.895 59.5369 108.763 59.2723 108.763 58.8754C108.763 58.4785 108.895 58.2139 109.159 57.9493C109.422 57.6847 109.818 57.5524 110.213 57.5524C110.741 57.5524 111.136 57.6847 111.4 58.0816C111.664 58.3462 111.795 58.7431 111.795 59.2723H113.377C113.377 58.3462 113.114 57.6847 112.586 57.1555C112.059 56.6263 111.268 56.3616 110.213 56.3616C109.291 56.3616 108.5 56.6263 107.972 57.1555C107.445 57.6847 107.181 58.3462 107.181 59.14C107.181 59.9339 107.445 60.5954 107.84 60.9923C108.368 61.3892 109.027 61.7861 110.082 62.0507C110.741 62.3153 111.268 62.4476 111.532 62.7123C111.795 62.9769 111.927 63.2415 111.927 63.6384C111.795 63.903 111.664 64.1676 111.4 64.4322ZM104.413 60.3308H100.853V57.6847H104.94V56.3616H99.1393V65.8876H104.94V64.5645H100.853V61.5215H104.413V60.3308ZM95.7116 66.0199H97.6892L93.6023 59.6692L97.2937 53.9802H95.3162L92.1521 59.2723H91.0975V53.9802H89.6473V65.8876H91.3611V60.4631H92.5476L95.7116 66.0199Z" fill="white"/>
</g>
<defs>
<clipPath id="clip0_1_368">
<rect width="257" height="120" fill="white"/>
</clipPath>
</defs>
</svg>
